<?xml version="1.0" encoding="UTF-8" standalone="no"?>
<!-- Created with Inkscape (http://www.inkscape.org/) -->

<svg
   xmlns:dc="http://purl.org/dc/elements/1.1/"
   xmlns:cc="http://creativecommons.org/ns#"
   xmlns:rdf="http://www.w3.org/1999/02/22-rdf-syntax-ns#"
   xmlns:svg="http://www.w3.org/2000/svg"
   xmlns="http://www.w3.org/2000/svg"
   version="1.1"
   width="600"
   height="600"
   id="svg3166"
   style="enable-background:new">
  <defs
     id="defs3168" />
  <metadata
     id="metadata3171">
    <rdf:RDF>
      <cc:Work
         rdf:about="">
        <dc:format>image/svg+xml</dc:format>
        <dc:type
           rdf:resource="http://purl.org/dc/dcmitype/StillImage" />
        <dc:title></dc:title>
      </cc:Work>
    </rdf:RDF>
  </metadata>
  <g
     id="logo"
     style="display:inline">
    <path
       d="m 383.87495,192.98328 c 4.89033,16.22589 142.1517,240.8342 142.1517,240.8342 15.08346,23.05928 33.67133,133.60378 -50.24328,133.19882 l -175.78338,0 -175.78337,0 C 40.302011,567.42126 58.889882,456.87676 73.973345,433.81748 c 0,0 137.261365,-224.60831 142.151695,-240.8342 60.62674,-11.10868 67.49774,9.9465 88.79302,13.14779 47.20581,7.6029 60.76543,-7.42513 78.95689,-13.14779 z"
       id="fluid"
       style="fill:none;stroke:#000000;stroke-width:25;stroke-linejoin:bevel;stroke-miterlimit:4;stroke-dasharray:none" />
    <path
       d="m 423.08921,34.221055 c 0,0 -30.55909,-2.786565 -39.21426,0 -9.80402,3.156453 -7.27915,134.610225 0,158.762225 4.89033,16.22589 142.1517,240.8342 142.1517,240.8342 15.08346,23.05928 33.67133,133.60378 -50.24328,133.19882 l -175.78338,0 -175.78337,0 C 40.302011,567.42126 58.889882,456.87676 73.973345,433.81748 c 0,0 137.261365,-224.60831 142.151695,-240.8342 7.27915,-24.152 9.80401,-155.605772 0,-158.762225 -8.65517,-2.786565 -39.21426,0 -39.21426,0"
       id="flask"
       style="fill:none;stroke:#000000;stroke-width:25.96100044;stroke-linecap:round;stroke-linejoin:miter;stroke-miterlimit:4;stroke-opacity:1;stroke-dasharray:none" />
    <g
       transform="matrix(3.2732895,0,0,-3.2732895,136.3355,542.18758)"
       id="propeller"
       style="fill:#000000;fill-opacity:1;stroke:none">
      <path
         d="m 50.071,27.404928 c 4.992717,0 9.047035,4.015764 9.047035,8.963759 0,4.952621 -4.055089,8.968385 -9.047035,8.968385 -4.996573,0 -9.047035,-4.015764 -9.047035,-8.968385 0,-4.947995 4.050462,-8.963759 9.047035,-8.963759"
         id="prop_cone"
         style="fill:#000000;fill-opacity:1;fill-rule:evenodd;stroke:none" />
      <path
         d="m 63.21,32.222 0.093,0.092 c 14.102,-2.42 26.854,-9.807 35.923,-20.8 l 0.012,-0.023 C 99.729,10.934 100,10.229 100,9.5 100,7.803 98.575,6.433 96.829,6.433 c -0.179,0 -0.351,0.011 -0.528,0.04 L 96.209,6.364 C 82.075,8.658 69.255,15.953 60.103,26.894 l 0.172,0.029 c 1.422,1.543 2.474,3.384 3.083,5.396 L 63.21,32.222 z"
         id="blade2"
         style="fill:#000000;fill-opacity:1;fill-rule:evenodd;stroke:none" />
      <path
         d="M 3.596,6.535 3.694,6.473 C 3.519,6.444 3.344,6.433 3.172,6.433 1.423,6.433 0,7.803 0,9.5 c 0,0.7 0.247,1.382 0.703,1.928 l 0.043,0.045 c 9.012,11.017 21.73,18.421 35.797,20.84 l -0.006,0.006 c 0.608,-2.002 1.663,-3.842 3.088,-5.38 L 39.62,26.893 C 30.51,15.952 17.732,8.657 3.646,6.363 l -0.05,0.172 z"
         id="blade3"
         style="fill:#000000;fill-opacity:1;fill-rule:evenodd;stroke:none" />
      <path
         d="m 52.953,49.874 v 0.022 c -1.001,0.195 -2.026,0.299 -3.062,0.299 -1.063,0 -2.124,-0.109 -3.165,-0.321 l -0.089,0.132 c -2.392,6.526 -3.613,13.425 -3.613,20.376 0,7.197 1.308,14.332 3.866,21.059 l 0.04,0.086 c 0.464,1.273 1.646,2.11 2.961,2.11 1.316,0 2.498,-0.837 2.968,-2.11 l -0.062,-0.086 c 2.552,-6.727 3.859,-13.861 3.859,-21.059 0,-6.951 -1.221,-13.85 -3.607,-20.376 l -0.096,-0.132 z"
         id="blade1"
         style="fill:#000000;fill-opacity:1;fill-rule:evenodd;stroke:none" />
    </g>
    <path
       d="m -44.688774,188.8633 a 50.376434,50.376434 0 1 1 -100.752866,0 50.376434,50.376434 0 1 1 100.752866,0 z"
       transform="matrix(9.9252757e-6,0,0,9.9252757e-6,300.23332,423.13289)"
       id="propCenter"
       style="fill:#1a1a1a;fill-opacity:1;stroke:#1a1a1a;stroke-width:1;stroke-linecap:round;stroke-miterlimit:4;stroke-opacity:1;stroke-dasharray:none" />
    <path
       d="m 383.87495,192.98328 c 4.89033,16.22589 142.1517,240.8342 142.1517,240.8342 15.08346,23.05928 33.67133,133.60378 -50.24328,133.19882 l -175.78338,0 -175.78337,0 C 40.302011,567.42126 58.889882,456.87676 73.973345,433.81748 c 0,0 137.261365,-224.60831 142.151695,-240.8342 28.29593,28.86862 74.94312,17.6207 88.79302,13.14779 25.11085,-9.43533 46.9706,-14.6247 78.95689,-13.14779 z"
       id="fluid-reverse"
       style="fill:none;stroke:none" />
  </g>
</svg>
